<svg id="Background" xmlns="http://www.w3.org/2000/svg" viewBox="0 0 192 192"><defs><style>.cls-1{fill:#2b2b2b;}.cls-2{fill:#a9b7c6;}.cls-3{fill:#9373a5;}</style></defs><rect class="cls-1" x="-3" y="-3" width="198" height="198"/><path class="cls-2" d="M37.23,58.06a1.57,1.57,0,0,1,1.26.66A2.54,2.54,0,0,1,39,60.3c0,.65-.6,2.22-1.78,4.73q-1.3,2.66-2,4.4A69.4,69.4,0,0,0,30.84,82.5a60.63,60.63,0,0,0-1.33,12.83,62.33,62.33,0,0,0,1.07,11.6,61.29,61.29,0,0,0,3.31,11.23q1.19,2.9,3.15,7t2,5.16a2.36,2.36,0,0,1-.51,1.54,1.46,1.46,0,0,1-1.16.61A5.62,5.62,0,0,1,34,131a25,25,0,0,1-4.1-4.54,53.09,53.09,0,0,1-7.63-14.77,52.92,52.92,0,0,1-.46-31.15,52.92,52.92,0,0,1,6.34-13.68,37.2,37.2,0,0,1,5.11-6.49C34.81,58.81,36.14,58.06,37.23,58.06Z"/><path class="cls-2" d="M75.63,74.24l9.42-5.09a4.32,4.32,0,0,1,.5-.23,1.27,1.27,0,0,1,.32,0,.66.66,0,0,1,.59.34A6.51,6.51,0,0,1,87,70.76l1,3.85c.1.34.17.65.23.94a5.72,5.72,0,0,1,.07.66.9.9,0,0,1-.28.69,1.81,1.81,0,0,1-.87.41L77.15,80,84,89.51a3.12,3.12,0,0,1,.41.66,1.87,1.87,0,0,1,.14.67,1.13,1.13,0,0,1-.33.62,9.27,9.27,0,0,1-.89.89l-2.6,2.34a3.4,3.4,0,0,1-.78.62,1.27,1.27,0,0,1-.59.21.72.72,0,0,1-.48-.28,2.57,2.57,0,0,1-.48-.73L73.18,83.6,68,94.51a2.84,2.84,0,0,1-.5.78.7.7,0,0,1-.46.23,1.27,1.27,0,0,1-.61-.26,6.14,6.14,0,0,1-.84-.66L63,92.26a7,7,0,0,1-.87-.87,1.16,1.16,0,0,1-.28-.64,1.66,1.66,0,0,1,.15-.67,2.89,2.89,0,0,1,.41-.66l6.9-9.36-10-2.75a1.93,1.93,0,0,1-.91-.43.9.9,0,0,1-.31-.67,5,5,0,0,1,.07-.71,7.29,7.29,0,0,1,.23-1l1.07-3.76v-.09c.35-1.2.69-1.79,1-1.79A1.51,1.51,0,0,1,61,69a1.75,1.75,0,0,1,.47.2l9.27,5.28-1.07-12.8v-.45A1.39,1.39,0,0,1,70,60.05a2.62,2.62,0,0,1,1.52-.3h3.27a2.53,2.53,0,0,1,1.48.3,1.39,1.39,0,0,1,.37,1.13v.45Z"/><path class="cls-3" d="M121.16,73.1h8a4.78,4.78,0,0,1,3.64,1.17,5.52,5.52,0,0,1,1.08,3.82,5.57,5.57,0,0,1-1.1,3.85,4.7,4.7,0,0,1-3.62,1.2h-8v21h7.38a4.81,4.81,0,0,1,3.64,1.15,5.5,5.5,0,0,1,1.07,3.8,5.7,5.7,0,0,1-1.09,3.9,4.75,4.75,0,0,1-3.62,1.19H108.1a4.74,4.74,0,0,1-3.64-1.19,5.75,5.75,0,0,1-1.08-3.9,5.55,5.55,0,0,1,1.06-3.8,4.8,4.8,0,0,1,3.66-1.15H112v-21H108.1a4.7,4.7,0,0,1-3.64-1.2,5.62,5.62,0,0,1-1.08-3.85,5.66,5.66,0,0,1,1.06-3.85,4.84,4.84,0,0,1,3.66-1.14H112V70.48q0-9,3.75-12.77t12.76-3.78q4.68,0,6.88,1.38a4.65,4.65,0,0,1,2.21,4.26,4.58,4.58,0,0,1-1,3.07A3.31,3.31,0,0,1,134,63.79a21,21,0,0,1-3.47-.41,20.3,20.3,0,0,0-3.14-.42q-3.45,0-4.84,1.91c-.93,1.27-1.39,3.5-1.39,6.71Z"/><path class="cls-2" d="M153.07,60.3a2.48,2.48,0,0,1,.52-1.58,1.51,1.51,0,0,1,1.22-.66c1.11,0,2.47.75,4.07,2.27A36.26,36.26,0,0,1,164,66.82a51.7,51.7,0,0,1,6.31,13.61,53.36,53.36,0,0,1-.44,31.22,53,53,0,0,1-7.61,14.77,24.23,24.23,0,0,1-4.12,4.51,5.81,5.81,0,0,1-3.41,1.58,1.46,1.46,0,0,1-1.17-.61,2.41,2.41,0,0,1-.5-1.54c0-.67.6-2.23,1.82-4.68q1.34-2.7,2.07-4.4a68.91,68.91,0,0,0,4.35-13.06,61.06,61.06,0,0,0,1.33-12.89,62.61,62.61,0,0,0-1.07-11.64,61.39,61.39,0,0,0-3.31-11.24q-1.22-3-3.21-7.08T153.07,60.3Z"/></svg>