<?xml version="1.0" standalone="no"?>
<!DOCTYPE svg PUBLIC "-//W3C//DTD SVG 20010904//EN"
 "http://www.w3.org/TR/2001/REC-SVG-20010904/DTD/svg10.dtd">
<svg version="1.0" xmlns="http://www.w3.org/2000/svg"
 width="16.000000pt" height="16.000000pt" viewBox="0 0 16.000000 16.000000"
 preserveAspectRatio="xMidYMid meet">
<metadata>
Created by potrace 1.11, written by Peter Selinger 2001-2013
</metadata>
<g transform="translate(0.000000,16.000000) scale(0.002667,-0.002667)"
fill="#000000" stroke="none">
<path d="M0 3000 l0 -3000 3000 0 3000 0 0 3000 0 3000 -3000 0 -3000 0 0
-3000z m4205 1280 c71 -36 90 -67 90 -147 0 -61 -2 -66 -34 -95 l-34 -31 -86
9 c-47 4 -122 8 -166 8 -93 1 -130 -18 -160 -80 -16 -35 -39 -210 -29 -226 3
-4 73 -8 155 -8 171 0 201 -9 225 -65 18 -44 18 -136 -1 -181 -22 -54 -58 -64
-235 -64 l-150 0 2 -327 3 -328 157 -5 c156 -5 158 -5 185 -33 24 -24 28 -36
31 -101 5 -90 -14 -138 -61 -158 -25 -10 -114 -13 -397 -13 -201 0 -378 3
-393 8 -45 12 -67 60 -67 145 0 77 16 123 47 138 10 4 63 11 118 14 l100 5 3
328 2 327 -87 0 c-99 0 -149 18 -170 60 -7 14 -13 60 -13 102 0 72 2 80 29
110 29 32 31 33 133 38 l103 5 6 135 c12 252 80 369 251 426 80 26 137 33 268
31 111 -2 131 -5 175 -27z m-2997 -118 c28 -36 18 -69 -86 -299 -70 -153 -128
-324 -159 -473 -25 -115 -27 -145 -28 -360 0 -247 6 -300 52 -485 31 -127 77
-249 160 -428 77 -166 90 -226 51 -251 -60 -40 -184 58 -307 243 -283 427
-352 963 -184 1444 113 325 367 663 473 629 8 -3 21 -12 28 -20z m3709 -8
c117 -67 307 -365 388 -608 65 -195 79 -286 80 -521 0 -180 -3 -226 -23 -322
-56 -278 -195 -567 -358 -742 -67 -73 -151 -119 -184 -101 -52 28 -44 81 35
240 96 192 171 416 207 620 8 49 13 157 13 310 -1 217 -3 245 -28 365 -37 173
-82 302 -180 514 -88 192 -97 231 -58 263 27 21 45 18 108 -18z m-2527 -39
c10 -12 9 -55 -4 -216 -9 -111 -14 -204 -12 -207 3 -2 73 32 155 77 82 44 154
81 160 81 5 0 13 -5 16 -10 13 -21 55 -186 55 -217 0 -36 13 -31 -219 -92 -62
-17 -115 -32 -118 -34 -2 -2 40 -64 94 -138 53 -74 105 -148 116 -166 l19 -32
-47 -49 c-25 -28 -64 -62 -86 -78 -34 -23 -42 -25 -53 -13 -7 8 -49 89 -92
182 -43 92 -81 167 -84 167 -4 0 -41 -75 -84 -167 -44 -93 -85 -174 -92 -182
-17 -18 -45 -1 -126 79 -46 44 -57 61 -51 76 4 10 56 86 116 167 60 81 108
149 106 151 -2 2 -74 23 -159 46 -85 24 -161 47 -167 53 -18 14 -16 49 8 131
28 98 40 126 53 126 6 0 78 -38 160 -85 82 -47 150 -84 152 -82 2 2 -3 75 -11
163 -16 172 -19 267 -8 277 3 4 48 7 98 7 70 0 96 -4 105 -15z"/>
</g>
</svg>
