<?xml version="1.0" standalone="no"?>
<!DOCTYPE svg PUBLIC "-//W3C//DTD SVG 20010904//EN"
 "http://www.w3.org/TR/2001/REC-SVG-20010904/DTD/svg10.dtd">
<svg version="1.0" xmlns="http://www.w3.org/2000/svg"
 width="16.000000pt" height="16.000000pt" viewBox="0 0 16.000000 16.000000"
 preserveAspectRatio="xMidYMid meet">
<metadata>
Created by potrace 1.11, written by Peter Selinger 2001-2013
</metadata>
<g transform="translate(0.000000,16.000000) scale(0.002667,-0.002667)"
fill="#000000" stroke="none">
<path d="M0 3000 l0 -3000 3000 0 3000 0 0 3000 0 3000 -3000 0 -3000 0 0
-3000z m2841 830 c53 -15 80 -49 81 -101 0 -35 -5 -47 -27 -67 -26 -22 -33
-23 -84 -16 -106 16 -148 12 -178 -18 -23 -24 -28 -38 -31 -98 l-4 -70 100 0
c131 0 147 -11 147 -100 0 -89 -16 -100 -146 -100 l-99 0 0 -210 0 -210 91 0
c50 0 99 -4 109 -10 43 -23 49 -131 9 -171 -18 -18 -35 -19 -268 -19 -236 0
-250 1 -275 21 -23 18 -26 28 -26 80 0 82 18 99 105 99 l65 0 0 210 0 210 -59
0 c-86 0 -111 22 -111 101 0 82 18 99 104 99 l63 0 5 94 c9 159 63 239 186
272 57 15 194 18 243 4z m-1896 -86 c19 -20 18 -25 -50 -179 -94 -215 -125
-350 -125 -550 0 -201 31 -339 125 -550 68 -153 69 -159 50 -179 -27 -26 -53
-19 -107 32 -94 88 -182 243 -235 417 -25 85 -27 101 -27 280 0 179 2 195 27
280 53 171 142 330 236 418 53 50 79 57 106 31z m2377 -9 c90 -61 217 -283
265 -460 23 -88 26 -118 26 -260 0 -141 -3 -172 -26 -260 -34 -127 -119 -300
-192 -387 -60 -74 -104 -103 -141 -94 -36 9 -31 45 25 166 88 188 125 327 137
507 13 200 -27 395 -126 616 -62 139 -68 165 -48 185 18 18 39 15 80 -13z
m1263 9 c19 -20 18 -25 -50 -179 -94 -215 -125 -350 -125 -550 0 -201 31 -339
125 -550 68 -153 69 -159 50 -179 -27 -26 -53 -19 -107 32 -94 88 -182 243
-235 417 -25 85 -27 101 -27 280 0 179 2 195 27 280 53 171 142 330 236 418
53 50 79 57 106 31z m557 -9 c90 -61 217 -283 265 -460 23 -88 26 -118 26
-260 0 -141 -3 -172 -26 -260 -34 -127 -119 -300 -192 -387 -60 -74 -104 -103
-141 -94 -36 9 -31 45 25 166 88 188 125 327 137 507 13 200 -27 395 -126 616
-62 139 -68 165 -48 185 18 18 39 15 80 -13z m-3439 -29 c3 -7 1 -58 -3 -112
-5 -55 -9 -112 -10 -127 l0 -29 96 52 c53 28 102 49 109 46 16 -6 50 -145 39
-156 -5 -4 -54 -20 -108 -34 -55 -15 -101 -28 -103 -29 -1 -2 29 -46 67 -98
38 -52 69 -101 70 -109 0 -22 -86 -104 -102 -97 -8 3 -39 55 -68 117 l-55 112
-55 -113 c-30 -62 -60 -115 -66 -116 -15 -5 -104 75 -104 93 0 8 32 57 71 110
40 52 70 96 68 98 -2 2 -47 16 -98 30 -127 34 -128 36 -101 125 11 39 26 71
32 71 7 0 52 -23 101 -51 49 -27 91 -48 94 -45 3 3 0 62 -6 131 -6 70 -9 131
-5 136 9 15 131 11 137 -5z"/>
</g>
</svg>
